<?xml version="1.0" standalone="no"?><!DOCTYPE svg PUBLIC "-//W3C//DTD SVG 20010904//EN" "http://www.w3.org/TR/2001/REC-SVG-20010904/DTD/svg10.dtd"><svg xmlns="http://www.w3.org/2000/svg" width="933.333" height="933.333" version="1" viewBox="0 0 700 700"><g transform="matrix(.1 0 0 -.1 0 700)"><path d="M3445 6558c-107-40-236-167-374-367-28-41-51-78-51-82s21-10 47-14c57-8 167-47 248-87 74-37 134-81 295-218 69-59 147-122 174-140l49-33-7 144c-20 411-99 694-218 782-32 24-119 32-163 15zM1255 4004c-319-552-579-1008-578-1012s262-458 580-1009l578-1003h285v796l29 45c55 85 116 120 208 120 96 0 172-53 215-148 16-37 18-66 16-280l-3-238h-170l-3 257-2 258h-110v-629l143-3 142-3 3-87 3-88h119v360h290v630h-110v-510h-180v253c0 238 1 254 21 287 45 76 103 115 182 126 86 12 189-41 234-121 22-40 23-45 23-432v-393h-280V980h110v100h170V980h250v810h-121l3 78 3 77 40 3c95 8 178-38 219-120l26-52V980l291 2 292 3 575 995c316 547 576 1002 578 1010s-257 465-575 1015l-578 1000-1169 2-1169 3-580-1006zm2030 526c192-49 347-139 484-279 149-154 231-294 282-479 17-59 23-116 26-245 4-105 2-172-5-179-5-5-363-32-803-59-436-28-796-52-798-55-9-8 36-85 84-147 84-107 212-190 345-223 84-21 238-14 331 15 73 23 166 79 234 142l45 41 143-130c79-72 149-137 155-145 10-12 0-26-53-75-141-133-280-212-450-258-89-24-118-27-265-27-180-1-236 8-377 63-167 64-378 234-482 389-214 316-241 773-65 1111 19 36 63 104 99 151 177 237 409 371 710 413 71 10 283-4 360-24z"/><path d="M2903 4116c-134-31-268-119-350-229-49-66-120-204-110-214 7-6 1157 64 1165 71 2 3-11 33-30 67-64 122-210 242-351 291-79 27-236 33-324 14zM5630 4839c-41-5-78-10-83-12-4-1 20-34 55-72 135-153 179-254 179-417 1-113-11-178-53-291-34-92-41-180-17-234l14-33 138 132c476 452 585 745 325 873-119 58-339 79-558 54zM2296 985c-4-12-24-15-91-15h-85V788c0-164 2-186 21-225 67-138 249-176 360-76 73 66 79 87 79 298v185h-85c-69 0-85 3-85 15 0 11-13 15-54 15-39 0-55-4-60-15zm112-207l-3-193-52-3-53-3v391h110l-2-192zM2710 795V620h460v350h-170V769l-57 3-58 3-3 98-3 97h-169V795zM3420 705V440h170v530h-170V705z"/></g></svg>
