<svg xmlns="http://www.w3.org/2000/svg" width="37" height="82"><path fill="#01549d" d="m10.828 64.81 1.869 3.237h3.737l1.869-3.237-1.869-3.236h-3.737Zm.943-4.84h5.59l2.794 4.84-2.795 4.841h-5.59l-2.794-4.84ZM4.313 43.35l2.782 4.819h5.564l2.782-4.819-2.782-4.818H7.095Zm1.403-7.206h8.322l4.16 7.206-4.16 7.207H5.716l-4.16-7.207ZM13.53 20.81l4.327 7.494h8.652l4.327-7.494-4.327-7.493h-8.652zm2.182-11.207h12.942l6.47 11.207-6.47 11.208H15.712L9.242 20.81Z"/><path fill="#fdfefa" d="M27.29 48.968h-2.26v24.064h2.26zm-5.667 1.3q0-.929.34-1.765.372-.836.992-1.455t1.456-.96q.836-.372 1.765-.372t1.765.371q.836.341 1.425.96.62.62.96 1.456.372.836.372 1.766v21.493q0 .93-.372 1.766-.34.836-.96 1.455-.589.589-1.425.96-.836.341-1.765.341-.93 0-1.765-.34-.837-.372-1.456-.96-.62-.62-.991-1.456-.34-.837-.34-1.766zM8.318 33.351c-2.96-.754-3.567-2.625-1.081-6.54.399-.382.832-.748 1.28-1.098.367.733.766 1.448 1.166 2.164-2.648 2.371-1.125 3.016 1.913 2.778.533.516 1.115.999 1.581 1.598-1.58.532-3.195.915-4.859 1.098m10.045 3.452c-.033-.732-.05-1.448-.033-2.18.749.167 1.514.3 2.296.433.175 3.161 1.213 3.296 3.128.3.766-.05 1.531-.2 2.313-.233-.798 1.63-1.663 3.228-2.662 4.742-2.026.91-4.035-.083-5.042-3.062"/><path fill="#fcbf31" d="M8.318 33.351c-3.237.44-8.469-.01-1.081-6.54.979 1.612-2.012 3.008 1.081 6.54m10.045 3.452c1.601.814 2.23 2.38 5.042 3.062-2.99 4.666-4.842 3.46-5.042-3.062"/></svg>