<svg xmlns="http://www.w3.org/2000/svg" width="37" height="82">
  <path d="m 10.828245,64.810416 1.868585,3.236483 h 3.737161 l 1.868586,-3.236483 -1.868586,-3.236492 H 12.69683 Z m 0.942394,-4.840702 h 5.589543 l 2.794782,4.840702 -2.794782,4.840693 H 11.770638 L 8.975856,64.810416 Z m -7.457627,-16.618258 2.78198,4.818511 h 5.563945 l 2.781981,-4.818511 -2.781981,-4.818528 H 7.094992 Z m 1.403053,-7.206902 8.321799,10e-7 4.16091,7.206901 -4.16091,7.206885 h -8.3218 L 1.555155,43.351456 Z m 7.814066,-15.334134 4.326411,7.493539 h 8.652799 l 4.326411,-7.493538 -4.326411,-7.493557 h -8.652798 z m 2.181965,-11.2078517 12.941692,1e-6 6.470858,11.2078607 -6.470858,11.207825 H 15.712095 L 9.241236,20.810429 Z" fill="#01549d" />
  <path d="m 27.290817,48.967741 h -2.260868 v 24.064312 h 2.260868 z m -5.667656,1.300774 q 0,-0.929124 0.340679,-1.765336 0.371649,-0.836211 0.991065,-1.455627 0.619416,-0.619416 1.455628,-0.960095 0.836211,-0.37165 1.765335,-0.37165 0.929124,0 1.765336,0.37165 0.836212,0.340679 1.424657,0.960095 0.619416,0.619416 0.960095,1.455627 0.371649,0.836212 0.371649,1.765336 v 21.493736 q 0,0.929124 -0.371649,1.765335 -0.340679,0.836212 -0.960095,1.455628 -0.588445,0.588445 -1.424657,0.960095 -0.836212,0.340678 -1.765336,0.340678 -0.929124,0 -1.765335,-0.340678 -0.836212,-0.37165 -1.455628,-0.960095 -0.619416,-0.619416 -0.991065,-1.455628 -0.340679,-0.836211 -0.340679,-1.765335 z" fill="#fdfefa" />
  <path d="M 8.318166,33.351116 C 5.358373,32.596569 4.751464,30.725699 7.236579,26.811722 c 0.399372,-0.382741 0.831982,-0.748792 1.2813,-1.098254 0.366024,0.732141 0.765413,1.447685 1.164772,2.163181 -2.647767,2.371472 -1.125097,3.01586 1.913565,2.778787 0.532443,0.515855 1.114833,0.998389 1.580751,1.597436 -1.580751,0.532484 -3.194826,0.915191 -4.858801,1.098244 z m 10.04528,3.452046 c -0.03352,-0.732163 -0.04978,-1.447678 -0.03352,-2.179813 0.748812,0.166409 1.514243,0.299492 2.296319,0.432653 0.175237,3.160994 1.213131,3.295862 3.128255,0.299586 0.765435,-0.04975 1.530843,-0.199677 2.312917,-0.232931 -0.798713,1.630669 -1.663761,3.228009 -2.662148,4.74221 -2.02661,0.910273 -4.035211,-0.08333 -5.041823,-3.061705 z" fill="#fdfefa" />
  <path d="m 8.318166,33.351116 c -3.237369,0.440392 -8.468915,-0.0093 -1.081587,-6.539394 0.979308,1.611478 -2.011644,3.007517 1.081587,6.539394 z m 10.04528,3.452046 c 1.600669,0.813668 2.2297,2.379255 5.041821,3.061705 -2.989411,4.665799 -4.84185,3.461032 -5.041821,-3.061705 z" fill="#fcbf31" />
</svg>
