<svg xmlns="http://www.w3.org/2000/svg" width="37" height="82"><path fill="#fdfefa" d="M29.394 19.274c3.465.884 4.175 3.073 1.266 7.655-.467.448-.973.876-1.5 1.285-.428-.857-.895-1.694-1.363-2.532 3.1-2.776 1.317-3.53-2.24-3.252-.623-.604-1.305-1.169-1.85-1.87 1.85-.623 3.74-1.071 5.687-1.286m-17.533-8.542c2.372-1.065 4.723.098 5.901 3.584.04.857.059 1.695.04 2.552a55 55 0 0 0-2.688-.507c-.205-3.7-1.42-3.858-3.662-.35-.896.058-1.792.233-2.707.272.935-1.909 1.947-3.778 3.116-5.55"/><path fill="#01549d" d="M21.422 52.652h7.812l3.906-6.766-3.906-6.765h-7.812l-3.906 6.765zM19.78 39.393H8.385l-5.698-9.868 5.698-9.869H19.78l5.698 9.869zm-2.681 23.89 2.608 4.518L17.1 72.32h-5.217L9.274 67.8l2.608-4.518Z"/><path fill="#fdfefa" d="M25.587 48.906h-2.26v-3.128h1.734q.774 0 1.487.371 1.083.558 1.765 1.642t.681 2.385V76.19h-3.407z"/><path fill="#fcbf31" d="M29.394 19.274c3.79-.515 9.914.011 1.266 7.655-1.146-1.886 2.355-3.52-1.266-7.655m-11.632-4.958c-1.873-.952-2.61-2.785-5.901-3.584 3.499-5.461 5.667-4.051 5.901 3.584"/></svg>