<svg xmlns="http://www.w3.org/2000/svg" width="37" height="82">
  <path d="m 29.394413,19.274339 c 3.464532,0.883221 4.174938,3.073134 1.266032,7.654567 -0.467477,0.448011 -0.973861,0.876485 -1.499802,1.285541 -0.428443,-0.856994 -0.895941,-1.69456 -1.363403,-2.532071 3.099295,-2.775883 1.316962,-3.53016 -2.239889,-3.252658 -0.623241,-0.603825 -1.304947,-1.168646 -1.850319,-1.86985 1.850319,-0.623289 3.739645,-1.07126 5.687381,-1.285529 z M 11.860708,10.732255 c 2.372209,-1.065504 4.723339,0.09754 5.901611,3.583822 0.03924,0.85702 0.05827,1.694552 0.03924,2.551539 -0.876508,-0.194786 -1.772469,-0.350564 -2.687914,-0.506434 -0.20512,-3.700042 -1.420008,-3.857909 -3.661721,-0.350674 -0.895966,0.05823 -1.7919,0.233728 -2.707343,0.272653 0.934919,-1.908749 1.947486,-3.778486 3.116127,-5.550906 z" fill="#fdfefa" />
  <path d="m 21.422102,52.651694 7.811806,-10e-7 3.905903,-6.765223 -3.905904,-6.765223 -7.811806,1e-6 -3.905903,6.765224 z m -1.642182,-13.258251 -11.395369,-10e-7 -5.697683,-9.868679 5.697685,-9.868679 11.395369,1e-6 5.697683,9.86868 z m -2.681146,23.889952 2.608308,4.517724 -2.608308,4.517726 H 11.882148 L 9.27384,67.801121 11.882148,63.283395 Z" fill="#01549d" />
  <path d="m 25.587423,48.9058 h -2.260868 v -3.128051 h 1.734365 q 0.77427,0 1.486598,0.37165 1.083978,0.557474 1.765336,1.641452 0.681357,1.083978 0.681357,2.384752 v 26.015472 h -3.406788 z" fill="#fdfefa" />
  <path d="m 29.394413,19.274339 c 3.789443,-0.515493 9.913133,0.01087 1.266032,7.654567 -1.146311,-1.886285 2.354693,-3.520393 -1.266032,-7.654567 z M 17.762319,14.316077 c -1.873634,-0.952424 -2.609935,-2.784993 -5.901611,-3.583822 3.4992,-5.4614652 5.667538,-4.0512479 5.901611,3.583822 z" fill="#fcbf31" />
</svg>
