<svg xmlns="http://www.w3.org/2000/svg" xmlns:xlink="http://www.w3.org/1999/xlink" width="37" height="82">
  <g id="g24">
    <path d="m 29.39441,19.274339 c 3.46454,0.883221 4.17494,3.073134 1.26603,7.654567 -0.46747,0.448011 -0.97386,0.876485 -1.4998,1.285541 -0.42844,-0.856994 -0.89594,-1.69456 -1.3634,-2.532071 3.09929,-2.775883 1.31696,-3.53016 -2.239889,-3.252658 -0.623241,-0.603825 -1.304947,-1.168646 -1.850319,-1.86985 1.850319,-0.623289 3.739648,-1.07126 5.687378,-1.285529 z M 11.860708,10.732255 c 2.372209,-1.065504 4.723339,0.09754 5.901611,3.583822 0.03924,0.85702 0.05827,1.694552 0.03924,2.551539 -0.876508,-0.194786 -1.772469,-0.350564 -2.687914,-0.506434 -0.20512,-3.700042 -1.420008,-3.857909 -3.661721,-0.350674 -0.895966,0.05823 -1.7919,0.233728 -2.707343,0.272653 0.934919,-1.908749 1.947486,-3.778486 3.116127,-5.550906 z" fill="#fdfefa" />
    <path d="m 19.77992,39.393443 -11.395369,-10e-7 -5.697683,-9.868679 5.697685,-9.868679 11.395369,1e-6 5.697683,9.86868 z" fill="#01549d" />
    <path d="m 29.39441,19.274339 c 3.78945,-0.515493 9.91314,0.01087 1.26603,7.654567 -1.14631,-1.886285 2.3547,-3.520393 -1.26603,-7.654567 z M 17.762319,14.316077 c -1.873634,-0.952424 -2.609935,-2.784993 -5.901611,-3.583822 3.4992,-5.4614652 5.667538,-4.0512479 5.901611,3.583822 z" fill="#fcbf31" />
  </g>
  <use xlink:href="#g24" transform="matrix(-.68552469 0 0 .68552469 34.98172 25.646517)" />
  <path d="m 21.623167,61.634799 h 5.667656 V 49.029683 h -2.260868 v 10.375218 h -3.406788 v -9.105415 q 0,-0.929124 0.340679,-1.734365 0.371649,-0.836212 0.991065,-1.455628 0.619416,-0.619416 1.455628,-0.960094 0.836211,-0.37165 1.765335,-0.37165 0.929124,0 1.765336,0.37165 0.836212,0.340678 1.424657,0.960094 0.619416,0.619416 0.960095,1.455628 0.371649,0.805241 0.371649,1.734365 V 64.76285 h -5.667656 v 8.331145 h 2.260868 v -6.101248 h 3.406788 v 9.198328 h -9.074444 z" fill="#fdfefa" />
</svg>
