<svg xmlns="http://www.w3.org/2000/svg" width="37" height="82">
  <path d="m 22.59604,32.034795 -5.74777,-1e-6 -2.87389,-4.977722 2.87389,-4.977721 5.74777,1e-6 2.87388,4.977722 z m 4.88019,33.190257 -16.91575,-1e-6 -8.45813,-14.649615 8.45813,-14.649614 16.91575,1e-6 8.45812,14.649615 z" fill="#01549d" />
  <path d="m 24.76507,36.562313 c -0.54332,-0.281588 -1.06761,-0.568349 -1.59011,-0.885941 0.43296,-0.471987 0.84874,-0.969933 1.27152,-1.479868 2.35884,1.192987 2.88968,0.498752 1.52262,-2.13695 0.28351,-0.574272 0.49469,-1.190288 0.79714,-1.769683 0.84571,1.258284 1.6396,2.550669 2.31763,3.904856 -0.18787,1.845485 -1.74492,2.883091 -4.3188,2.367586 z m 5.31986,-16.48157 c 2.47131,0.630015 2.97809,2.192114 0.90311,5.460122 -0.33345,0.319569 -0.69462,0.625209 -1.06985,0.916996 -0.30563,-0.611309 -0.63909,-1.208756 -0.97252,-1.806165 2.21079,-1.980079 0.93941,-2.518115 -1.59777,-2.32017 -0.44453,-0.43072 -0.93085,-0.833615 -1.31981,-1.333794 1.31981,-0.4446 2.66749,-0.764145 4.05684,-0.916989 z M 22.76149,17.16016 c 0.0278,0.611328 0.0416,1.208747 0.0278,1.820052 -0.62524,-0.13894 -1.26436,-0.250063 -1.91736,-0.361248 -0.14627,-2.639292 -1.0129,-2.751901 -2.61196,-0.250143 -0.63909,0.04157 -1.27817,0.166722 -1.93116,0.194486 0.66685,-1.361536 1.38913,-2.695245 2.22288,-3.95954 1.69218,-0.76004 3.3693,0.06958 4.2098,2.556393 z" fill="#fdfefa" />
  <path d="m 24.76507,36.562313 c 1.2566,-0.817756 2.65129,-0.619001 4.31876,-2.367517 2.12581,4.109463 0.48128,4.946041 -4.31876,2.367517 z m 5.31986,-16.48157 c 2.70311,-0.367711 7.07121,0.0079 0.90311,5.460122 -0.81766,-1.34552 1.67968,-2.511149 -0.90311,-5.460122 z M 22.76149,17.16016 c -1.33649,-0.679375 -1.86173,-1.986578 -4.20971,-2.556393 2.496,-3.895746 4.04275,-2.889818 4.20971,2.556393 z" fill="#fcbf31" />
  <path d="m 30.697611,71.762251 q 0,0.929124 -0.371649,1.765335 -0.340679,0.836212 -0.960095,1.455628 -0.619416,0.619416 -1.455628,0.991065 -0.805241,0.340679 -1.734365,0.340679 -0.929124,0 -1.765335,-0.340679 -0.836212,-0.371649 -1.455628,-0.991065 -0.619416,-0.619416 -0.991065,-1.455628 -0.340679,-0.836211 -0.340679,-1.765335 v -4.800475 h 3.406788 v 6.101248 h 2.260868 v -8.331145 h -2.260868 v -3.09708 h 2.260868 V 48.998712 H 25.029955 V 59.37393 h -3.406788 v -9.074444 q 0,-0.929124 0.340679,-1.765336 0.371649,-0.836211 0.991065,-1.455627 0.619416,-0.619416 1.455628,-0.960095 0.836211,-0.37165 1.765335,-0.37165 0.929124,0 1.734365,0.37165 0.836212,0.340679 1.455628,0.960095 0.619416,0.619416 0.960095,1.455627 0.371649,0.836212 0.371649,1.765336 v 10.034539 q 0,0.805241 -0.278737,1.54854 -0.247766,0.712329 -0.712328,1.300774 0.464562,0.588445 0.712328,1.331744 0.278737,0.712329 0.278737,1.517569 z" fill="#fdfefa" />
</svg>
