<svg xmlns="http://www.w3.org/2000/svg" width="37" height="82"><path fill="#01549d" d="M22.596 32.035h-5.748l-2.874-4.978 2.874-4.978h5.748l2.874 4.978zm4.88 33.19H10.56l-8.458-14.65 8.458-14.65h16.916l8.458 14.65z"/><path fill="#fdfefa" d="M24.765 36.562a27 27 0 0 1-1.59-.886c.433-.472.849-.97 1.271-1.48 2.36 1.193 2.89.5 1.523-2.136.284-.575.495-1.19.797-1.77.846 1.258 1.64 2.55 2.318 3.905-.188 1.845-1.745 2.883-4.319 2.367m5.32-16.481c2.471.63 2.978 2.192.903 5.46-.333.32-.695.625-1.07.917-.305-.611-.639-1.209-.972-1.806 2.21-1.98.94-2.518-1.598-2.32-.445-.431-.93-.834-1.32-1.334a19.3 19.3 0 0 1 4.057-.917m-7.324-2.92c.028.61.042 1.208.028 1.82a39 39 0 0 0-1.917-.362c-.146-2.64-1.013-2.752-2.612-.25-.64.041-1.278.167-1.931.194.667-1.361 1.389-2.695 2.223-3.96 1.692-.76 3.369.07 4.21 2.557"/><path fill="#fcbf31" d="M24.765 36.562c1.257-.817 2.651-.619 4.319-2.367 2.126 4.11.481 4.946-4.319 2.367m5.32-16.481c2.703-.368 7.071.008.903 5.46-.818-1.346 1.68-2.511-.903-5.46m-7.324-2.92c-1.336-.68-1.861-1.987-4.21-2.557 2.497-3.896 4.044-2.89 4.21 2.556"/><path fill="#fdfefa" d="M30.698 71.762q0 .93-.372 1.766-.34.836-.96 1.455t-1.456.991q-.805.341-1.734.341-.93 0-1.765-.34-.837-.372-1.456-.992-.62-.62-.991-1.455-.34-.837-.34-1.766v-4.8h3.406v6.101h2.26v-8.331h-2.26v-3.097h2.26V48.999h-2.26v10.375h-3.407v-9.075q0-.929.34-1.765.372-.836.992-1.455t1.456-.96q.836-.372 1.765-.372t1.734.371q.836.341 1.456.96.62.62.96 1.456.372.836.372 1.765v10.035q0 .805-.28 1.549-.247.712-.711 1.3.464.589.712 1.332.279.712.279 1.518z"/></svg>