<svg xmlns="http://www.w3.org/2000/svg" width="37" height="82">
  <path d="m 16.083258,21.02265 3.835412,6.64312 -3.835412,6.64315 H 8.412446 L 4.577037,27.66577 8.412446,21.02265 Z" fill="#fcbf31" />
  <path d="m 28.917501,43.2522 3.835412,6.64312 -3.835412,6.64315 H 21.246689 L 17.41128,49.89532 21.246689,43.2522 Z m -12.834243,7.40985 3.835412,6.64312 -3.835412,6.64315 H 8.412446 L 4.577037,57.30517 8.412446,50.66205 Z m 0,-14.8197 3.835412,6.64312 -3.835412,6.64315 H 8.412446 L 4.577037,42.48547 8.412446,35.84235 Z m 0,-29.639404 3.835412,6.64312 -3.835412,6.643154 H 8.412446 L 4.577037,12.846066 8.412446,6.202946 Z" fill="#01549d" />
  <path d="m 21.59219,45.808725 h 9.136386 v 13.53424 h -3.437759 v -10.43716 h -2.260868 v 12.667057 h 5.698627 v 10.189394 q 0,0.960094 -0.371649,1.796306 -0.340679,0.836212 -0.960095,1.455628 -0.619416,0.619416 -1.455628,0.991065 -0.836212,0.340679 -1.765336,0.340679 -0.960094,0 -1.796306,-0.340679 Q 23.574321,75.633606 22.954905,75.01419 22.335489,74.394774 21.96384,73.558562 21.623161,72.72235 21.623161,71.762256 v -4.800475 h 3.406788 v 6.101248 h 2.260868 V 64.700913 H 21.59219 Z" fill="#fdfefa" />
</svg>
