<svg xmlns="http://www.w3.org/2000/svg" width="37" height="82"><path fill="#fcbf31" d="m16.083 21.023 3.836 6.643-3.836 6.643h-7.67l-3.836-6.643 3.835-6.643Z"/><path fill="#01549d" d="m28.918 43.252 3.835 6.643-3.835 6.643h-7.671l-3.836-6.643 3.836-6.643Zm-12.835 7.41 3.836 6.643-3.836 6.643h-7.67l-3.836-6.643 3.835-6.643Zm0-14.82 3.836 6.643-3.836 6.644h-7.67l-3.836-6.644 3.835-6.643Zm0-29.64 3.836 6.644-3.836 6.643h-7.67l-3.836-6.643 3.835-6.643Z"/><path fill="#fdfefa" d="M21.592 45.809h9.137v13.534H27.29V48.906H25.03v12.667h5.699v10.19q0 .96-.372 1.796-.34.836-.96 1.455t-1.456.991q-.836.34-1.765.34-.96 0-1.796-.34-.806-.371-1.425-.99-.62-.62-.991-1.456-.34-.837-.34-1.797v-4.8h3.406v6.101h2.26v-8.362h-5.698Z"/></svg>