<svg xmlns="http://www.w3.org/2000/svg" xmlns:xlink="http://www.w3.org/1999/xlink" width="37" height="82">
  <path d="M 27.290817,64.762855 H 25.029949 V 73.094 h 2.260868 z m 3.406788,7.030371 q 0,0.929124 -0.371649,1.765336 -0.340679,0.836212 -0.960095,1.455628 -0.588445,0.619416 -1.424657,0.991065 -0.836212,0.340679 -1.765336,0.340679 -0.929124,0 -1.765335,-0.340679 Q 23.574321,75.633606 22.954905,75.01419 22.335489,74.394774 21.96384,73.558562 21.623161,72.72235 21.623161,71.793226 V 50.299491 q 0,-0.929124 0.340679,-1.765336 0.371649,-0.836211 0.960094,-1.424657 0.619416,-0.619416 1.455628,-0.960094 0.836212,-0.37165 1.765336,-0.37165 0.929124,0 1.765335,0.37165 0.836212,0.340678 1.455628,0.960094 0.619416,0.588446 0.960095,1.424657 0.371649,0.836212 0.371649,1.765336 v 9.074444 H 27.290817 V 49.029688 h -2.260868 v 12.605116 h 5.667656 z" fill="#fdfefa" />
  <path d="M 23.942693,32.62705 H 13.057304 L 7.61461,23.2 13.057306,13.772973 H 23.942697 L 29.385391,23.2 Z M 8.66576,42.65745 10.273881,45.44278 8.66576,48.2281 H 5.449522 L 3.841401,45.44278 5.449522,42.65745 Z" fill="#01549d" />
  <use xlink:href="#g6" transform="rotate(120 18.5 23.2)" />
  <use xlink:href="#g6" transform="rotate(-120 18.5 23.2)" />
  <g id="g6">
    <path d="m 17.572443,6.783371 c 1.975092,-0.887134 3.932633,0.08121 4.913657,2.983876 0.03267,0.713551 0.04852,1.410877 0.03267,2.1244 -0.729777,-0.162178 -1.47575,-0.291878 -2.237946,-0.421654 -0.170782,-3.08064 -1.182293,-3.21208 -3.048734,-0.29197 -0.745977,0.04848 -1.491928,0.194601 -2.254123,0.22701 0.77841,-1.589217 1.621469,-3.145952 2.594476,-4.621662 z m 13.457634,7.181136 c 2.890453,0.736869 3.483143,2.56391 1.056248,6.386193 -0.390015,0.37377 -0.81249,0.73124 -1.251282,1.07252 -0.357449,-0.71498 -0.747482,-1.41377 -1.137485,-2.1125 2.585737,-2.315914 1.098739,-2.945206 -1.868735,-2.713686 -0.519969,-0.50377 -1.088715,-0.975 -1.543718,-1.560013 1.543718,-0.520009 3.119979,-0.89375 4.744972,-1.072514 z" fill="#fdfefa" />
    <path d="M 22.4861,9.767247 C 20.92612,8.974262 20.313079,7.448473 17.572443,6.783371 20.485863,2.236177 22.291212,3.410318 22.4861,9.767247 Z m 8.543977,4.19726 c 3.161525,-0.430075 8.270509,0.0091 1.056248,6.386193 -0.956365,-1.57373 1.964516,-2.937059 -1.056248,-6.386193 z" fill="#fcbf31" />
  </g>
</svg>
