<svg xmlns="http://www.w3.org/2000/svg" xmlns:xlink="http://www.w3.org/1999/xlink" width="37" height="82"><path fill="#fdfefa" d="M27.29 64.763h-2.26v8.331h2.26zm3.408 7.03q0 .93-.372 1.766-.34.836-.96 1.455-.589.62-1.425.991-.836.34-1.765.34-.93 0-1.765-.34-.837-.371-1.456-.99-.62-.62-.991-1.456-.34-.837-.34-1.766V50.3q0-.929.34-1.765.371-.836.96-1.425.62-.619 1.456-.96.836-.371 1.765-.371t1.765.371q.836.341 1.456.96.62.589.96 1.425.372.836.372 1.765v9.075H27.29V49.03H25.03v12.605h5.668z"/><path fill="#01549d" d="M23.943 32.627H13.057L7.615 23.2l5.442-9.427h10.886l5.442 9.427ZM8.666 42.657l1.608 2.786-1.608 2.785H5.45L3.84 45.443l1.609-2.786Z"/><use xlink:href="#a" transform="rotate(120 18.5 23.2)"/><use xlink:href="#a" transform="rotate(-120 18.5 23.2)"/><g id="a"><path fill="#fdfefa" d="M17.572 6.783c1.976-.887 3.933.082 4.914 2.984.033.714.049 1.411.033 2.125a46 46 0 0 0-2.238-.422c-.171-3.08-1.182-3.212-3.049-.292-.746.049-1.492.195-2.254.227.778-1.59 1.621-3.146 2.594-4.622m13.458 7.182c2.89.736 3.483 2.563 1.056 6.386-.39.373-.812.73-1.251 1.072a53 53 0 0 0-1.137-2.112c2.585-2.316 1.098-2.945-1.87-2.714-.52-.504-1.088-.975-1.543-1.56 1.544-.52 3.12-.894 4.745-1.072"/><path fill="#fcbf31" d="M22.486 9.767c-1.56-.793-2.173-2.319-4.914-2.984 2.914-4.547 4.72-3.373 4.914 2.984m8.544 4.198c3.162-.43 8.27.009 1.056 6.386-.956-1.574 1.965-2.937-1.056-6.386"/></g></svg>