<svg xmlns="http://www.w3.org/2000/svg" xmlns:xlink="http://www.w3.org/1999/xlink" width="37" height="82">
  <g id="g46">
    <path d="m 15.635,31.30342 c 0.935279,-0.29436 1.867651,-0.63623 2.818495,-0.98874 2.214209,3.38721 3.449298,2.87313 3.654365,-1.66766 0.815557,-0.54413 1.566978,-1.19932 2.41146,-1.73602 0.158044,2.31552 0.221324,4.63672 0.08385,6.950915 C 22.94153,36.16485 20.083053,36.34876 17.065211,33.69496 16.560221,32.90597 16.084857,32.12427 15.635,31.30342 Z" fill="#fdfefa" />
    <path d="m 17.065212,33.69496 c 2.291947,-0.12223 3.988848,1.20884 7.537962,0.16697 -0.32726,7.07551 -3.147847,6.92576 -7.537962,-0.16697 z" fill="#fcbf31" />
  </g>
  <g id="g47">
    <path d="m 18.160947,39.749698 c 0.01225,-0.57497 0.06118,-1.16204 0.134541,-1.7492 0.807231,0.26919 1.626784,0.50162 2.446267,0.7339 -0.203072,3.68957 1.389852,3.04395 3.449189,0.63603 0.770593,-0.0121 1.553389,-0.0856 2.336174,0.0123 -0.770525,1.55346 -1.675633,3.02121 -2.764268,4.37875 -2.730262,1.62107 -4.551622,0.69188 -5.601903,-4.01178 z" fill="#fdfefa" />
    <path d="m 23.76285,43.761448 c -2.055938,2.7035 -6.232032,6.21842 -5.601903,-4.01175 1.904389,0.46459 0.732049,3.68943 5.601903,4.01175 z" fill="#fcbf31" />
  </g>
  <use xlink:href="#g46" transform="rotate(83.303373 3.9743375 36.513653)scale(.77047899)" />
  <use xlink:href="#g47" transform="rotate(24.049429-29.038994 28.925572)scale(.8045143)" />
  <use xlink:href="#g46" transform="rotate(11.3232-179.50696 23.010762)scale(.61007042)" />
  <use xlink:href="#g47" transform="rotate(-80.401869 34.947872 46.00672)scale(.64474501)" />
  <use xlink:href="#g46" transform="rotate(83.157874-41.902846 40.642843)scale(-.50271126)" />
  <path d="m 25.307015,28.47621 h -4.576117 l -2.288063,-3.96306 2.288063,-3.96308 h 4.576123 l 2.288059,3.96308 z m -8.40255,4.85126 h -4.576117 l -2.288063,-3.96306 2.288063,-3.96308 h 4.576123 l 2.288057,3.96308 z M 16.608349,23.11208 H 7.324384 L 2.682397,15.071969 7.324384,7.031817 h 9.283971 l 4.641981,8.040152 z" fill="#01549d" />
  <path d="M 24.255685,76.19108 27.290823,48.936776 H 25.029955 V 59.311994 H 21.592196 V 45.808725 h 9.136386 l -0.03097,3.09708 -3.004167,27.285275 z" fill="#fdfefa" />
</svg>
