<svg xmlns="http://www.w3.org/2000/svg" xmlns:xlink="http://www.w3.org/1999/xlink" width="37" height="82"><g id="a"><path fill="#fdfefa" d="M15.635 31.303a60 60 0 0 0 2.818-.988c2.215 3.387 3.45 2.873 3.655-1.668.815-.544 1.567-1.2 2.411-1.736.158 2.316.222 4.637.084 6.95-1.661 2.304-4.52 2.488-7.538-.166-.505-.789-.98-1.57-1.43-2.392"/><path fill="#fcbf31" d="M17.065 33.695c2.292-.122 3.99 1.209 7.538.167-.327 7.075-3.148 6.926-7.538-.167"/></g><g id="b"><path fill="#fdfefa" d="M18.16 39.75a17 17 0 0 1 .135-1.75c.808.27 1.627.502 2.447.734-.203 3.69 1.39 3.044 3.449.636.77-.012 1.553-.085 2.336.013-.77 1.553-1.676 3.02-2.764 4.378-2.73 1.622-4.552.692-5.602-4.011"/><path fill="#fcbf31" d="M23.763 43.761c-2.056 2.704-6.232 6.219-5.602-4.011 1.904.464.732 3.69 5.602 4.011"/></g><use xlink:href="#a" transform="rotate(83.303 3.974 36.514)scale(.77048)"/><use xlink:href="#b" transform="rotate(24.05 -29.039 28.926)scale(.80451)"/><use xlink:href="#a" transform="rotate(11.323 -179.507 23.01)scale(.61007)"/><use xlink:href="#b" transform="rotate(-80.402 34.948 46.007)scale(.64475)"/><use xlink:href="#a" transform="rotate(-96.842 36.058 37.176)scale(.50271)"/><path fill="#01549d" d="M25.307 28.476h-4.576l-2.288-3.963 2.288-3.963h4.576l2.288 3.963zm-8.403 4.851h-4.576l-2.288-3.963 2.288-3.963h4.576l2.289 3.963zm-.296-10.215H7.324l-4.642-8.04 4.642-8.04h9.284l4.642 8.04z"/><path fill="#fdfefa" d="m24.256 76.191 3.035-27.254H25.03v10.375h-3.438V45.809h9.137l-.031 3.097-3.005 27.285z"/></svg>