<svg xmlns="http://www.w3.org/2000/svg" xmlns:xlink="http://www.w3.org/1999/xlink" width="37" height="82">
  <use xlink:href="#g30" transform="rotate(180 17.05923 41.89353)" />
  <g id="g30">
    <path d="M 14.528009,38.474145 H 9.9584158 L 7.6736156,34.516758 9.9584158,30.559372 h 4.5695932 l 2.2848,3.957386 z m 9.09163,-9.137912 H 11.6101 L 5.6053242,18.935661 11.6101,8.535089 l 12.009539,1.1e-6 6.004776,10.4005709 z" fill="#01549d" />
    <path d="m 17.43334,14.07426 c 4.95416,1.26297 5.97,4.39446 1.81039,10.94573 -0.66848,0.64064 -1.39258,1.25334 -2.14467,1.83828 -0.61265,-1.22548 -1.28116,-2.42316 -1.94961,-3.62076 4.43188,-3.96942 1.8832,-5.04799 -3.20295,-4.65118 -0.89121,-0.86345 -1.86601,-1.67112 -2.64589,-2.67381 2.64589,-0.89128 5.34756,-1.53186 8.13273,-1.83826 z" fill="#fdfefa" />
    <path d="m 17.43334,14.07426 c 5.41877,-0.73713 14.1754,0.0156 1.81039,10.94573 -1.63918,-2.69732 3.36711,-5.03403 -1.81039,-10.94573 z" fill="#fcbf31" />
  </g>
  <path d="m 30.697611,60.395972 q 0,0.805241 -0.278737,1.54854 -0.247766,0.712328 -0.712328,1.300773 0.464562,0.588446 0.712328,1.331745 0.278737,0.712328 0.278737,1.517569 v 5.729598 q 0,0.929124 -0.371649,1.765336 -0.340679,0.836211 -0.960095,1.455627 -0.588445,0.619416 -1.424657,0.991066 -0.836212,0.340679 -1.765336,0.340679 -0.929124,0 -1.765335,-0.340679 -0.836212,-0.37165 -1.455628,-0.991066 -0.619416,-0.619416 -0.991065,-1.455627 -0.340679,-0.836212 -0.340679,-1.765336 v -5.946394 0.216796 q 0,-0.805241 0.247766,-1.517569 0.278737,-0.743299 0.743299,-1.331745 -0.464562,-0.588445 -0.743299,-1.300773 -0.247766,-0.743299 -0.247766,-1.54854 v -10.220364 0.185824 q 0,-0.929124 0.340679,-1.765335 0.371649,-0.836212 0.991065,-1.455628 0.619416,-0.619416 1.455628,-0.960095 0.836211,-0.371649 1.765335,-0.371649 0.929124,0 1.765336,0.371649 0.836212,0.340679 1.424657,0.960095 0.619416,0.619416 0.960095,1.455628 0.371649,0.836211 0.371649,1.765335 z m -5.667656,1.300773 h 2.260868 V 49.060659 h -2.260868 z m 2.260868,11.428226 v -8.331146 h -2.260868 v 8.331146 z" fill="#fdfefa" />
</svg>
