<svg xmlns="http://www.w3.org/2000/svg" xmlns:xlink="http://www.w3.org/1999/xlink" width="37" height="82"><use xlink:href="#a" transform="rotate(180 17.06 41.894)"/><g id="a"><path fill="#01549d" d="M14.528 38.474h-4.57l-2.284-3.957 2.284-3.958h4.57l2.285 3.958zm9.092-9.138H11.61l-6.005-10.4 6.005-10.4h12.01l6.004 10.4z"/><path fill="#fdfefa" d="M17.433 14.074c4.955 1.263 5.97 4.395 1.81 10.946a28 28 0 0 1-2.144 1.838c-.613-1.225-1.281-2.423-1.95-3.62 4.432-3.97 1.884-5.048-3.203-4.652-.89-.863-1.866-1.67-2.645-2.673 2.645-.892 5.347-1.532 8.132-1.839"/><path fill="#fcbf31" d="M17.433 14.074c5.42-.737 14.176.016 1.81 10.946-1.638-2.697 3.368-5.034-1.81-10.946"/></g><path fill="#fdfefa" d="M30.698 60.396q0 .805-.28 1.549-.247.712-.711 1.3.464.589.712 1.332.279.712.279 1.518v5.73q0 .928-.372 1.765-.34.836-.96 1.455-.589.62-1.425.991-.836.34-1.765.34-.93 0-1.765-.34-.837-.371-1.456-.99-.62-.62-.991-1.456-.34-.837-.34-1.766v-5.946.217q0-.806.247-1.518.279-.743.743-1.332-.464-.588-.743-1.3-.248-.744-.248-1.549v-10.22.185q0-.929.34-1.765.372-.836.992-1.456.62-.619 1.456-.96.836-.371 1.765-.371t1.765.371q.836.341 1.425.96.62.62.96 1.456.372.836.372 1.765zm-5.668 1.3h2.26V49.062h-2.26zm2.26 11.429v-8.331h-2.26v8.331z"/></svg>