<svg xmlns="http://www.w3.org/2000/svg" xmlns:xlink="http://www.w3.org/1999/xlink" width="37" height="82">
  <use xlink:href="#g10" transform="translate(9.28587-5.361201)" />
  <use xlink:href="#g10" transform="translate(-9.28587-5.361201)" />
  <g id="g10">
    <path d="m 21.00811,34.96396 2.50792,4.34404 -2.50792,4.34412 H 15.99188 L 13.48396,39.308 15.99188,34.96396 Z" fill="#fdfefa" />
    <path d="m 21.358698,11.714386 2.858674,4.951378 -2.858674,4.951459 h -5.717406 l -2.858674,-4.951459 2.858674,-4.951378 z" fill="#01549d" />
    <path d="m 21.21482,23.51421 2.71475,4.70214 -2.71475,4.70222 h -5.42965 l -2.71475,-4.70222 2.71475,-4.70214 z" fill="#fcbf31" />
  </g>
  <path d="m 29.620023,67.245782 h -9.247567 l -4.623783,-8.008629 4.623783,-8.008628 h 9.247567 l 4.623783,8.008628 z" fill="#01549d" />
  <path d="m 25.029955,61.603833 h 2.260868 V 48.967746 H 25.029955 Z M 21.623167,50.26852 q 0,-0.929124 0.340679,-1.765336 0.371649,-0.836211 0.991065,-1.455627 0.619416,-0.619416 1.424657,-0.960095 0.836212,-0.37165 1.765336,-0.37165 0.929124,0 1.765335,0.37165 0.836212,0.340679 1.455628,0.960095 0.619416,0.619416 0.960095,1.455627 0.371649,0.836212 0.371649,1.765336 v 21.493736 q 0,0.929124 -0.371649,1.765335 -0.340679,0.836212 -0.960095,1.455628 -0.588445,0.588445 -1.424657,0.960095 -0.836212,0.340678 -1.765336,0.340678 -0.929124,0 -1.765335,-0.340678 -0.836212,-0.37165 -1.455628,-0.960095 -0.619416,-0.619416 -0.991065,-1.455628 -0.340679,-0.836211 -0.340679,-1.765335 v -4.800475 h 3.406788 v 6.070277 h 2.260868 v -8.331145 h -5.667656 z" fill="#fdfefa" />
</svg>
