<svg xmlns="http://www.w3.org/2000/svg" xmlns:xlink="http://www.w3.org/1999/xlink" width="37" height="82"><use xlink:href="#a" transform="translate(9.286 -5.361)"/><use xlink:href="#a" transform="translate(-9.286 -5.361)"/><g id="a"><path fill="#fdfefa" d="m21.008 34.964 2.508 4.344-2.508 4.344h-5.016l-2.508-4.344 2.508-4.344Z"/><path fill="#01549d" d="m21.359 11.714 2.858 4.952-2.858 4.951H15.64l-2.858-4.951 2.858-4.952z"/><path fill="#fcbf31" d="m21.215 23.514 2.715 4.702-2.715 4.703h-5.43l-2.715-4.703 2.715-4.702z"/></g><path fill="#01549d" d="M29.62 67.246h-9.248l-4.623-8.009 4.623-8.008h9.248l4.624 8.008z"/><path fill="#fdfefa" d="M25.03 61.604h2.26V48.968h-2.26Zm-3.407-11.335q0-.93.34-1.766.372-.836.992-1.455t1.425-.96q.836-.372 1.765-.372t1.765.371q.836.341 1.456.96.62.62.96 1.456.372.836.372 1.766v21.493q0 .93-.372 1.766-.34.836-.96 1.455-.589.589-1.425.96-.836.341-1.765.341-.93 0-1.765-.34-.837-.372-1.456-.96-.62-.62-.991-1.456-.34-.837-.34-1.766v-4.8h3.406v6.07h2.26v-8.331h-5.667z"/></svg>