<svg xmlns="http://www.w3.org/2000/svg" xml:space="preserve" style="fill-rule:evenodd;clip-rule:evenodd;stroke-linejoin:round;stroke-miterlimit:2" viewBox="0 0 256 256">
  <defs>
    <filter id="b" width="2" height="2" x="-.5" y="-.5" style="color-interpolation-filters:sRGB">
      <feFlood flood-color="#000" flood-opacity=".498" result="flood"/>
      <feGaussianBlur in="SourceGraphic" result="blur" stdDeviation="15"/>
      <feOffset in="blur" result="offset"/>
      <feComposite in="flood" in2="offset" operator="in" result="comp1"/>
      <feComposite in="SourceGraphic" in2="comp1" result="fbSourceGraphic"/>
      <feColorMatrix in="fbSourceGraphic" result="fbSourceGraphicAlpha" values="0 0 0 -1 0 0 0 0 -1 0 0 0 0 -1 0 0 0 0 1 0"/>
      <feFlood flood-color="#000" flood-opacity=".498" result="flood"/>
      <feGaussianBlur in="fbSourceGraphic" result="blur" stdDeviation="2"/>
      <feOffset in="blur" result="offset"/>
      <feComposite in="flood" in2="offset" operator="in" result="comp1"/>
      <feComposite in="fbSourceGraphic" in2="comp1" result="comp2"/>
    </filter>
  </defs>
  <path d="M41.189 113.284C51.065 96.354 61.625 78.407 65.6 70.4h50.001l-74.412 42.884Z" style="fill:#c479a0"/>
  <path d="m103.129 221.7 75.787-43.676c-8.526 14.563-17.123 29.076-25.685 43.625l-.089.051h-50.013Z" style="fill:#6b83cf"/>
  <path d="M25.518 151.137A779.56 779.56 0 0 1 22.7 146c3.388-6.733 10.727-19.411 18.489-32.716L115.601 70.4H153.8a413.096 413.096 0 0 1 2.947 5.11L25.518 151.137Z" style="fill:#eca6cb"/>
  <path d="M103.129 221.7H65.8a695.648 695.648 0 0 0-3.032-5.563l129.149-74.428a432.554 432.554 0 0 0 3.983 6.991 3239.77 3239.77 0 0 1-16.985 29.324L103.128 221.7Z" style="fill:#9bc7e8"/>
  <path d="M37.876 172.838c-4.187-7.21-8.333-14.431-12.358-21.701L156.747 75.51c3.983 7.021 7.939 14.43 11.882 21.975L37.876 172.838ZM62.768 216.137c-4.015-7.292-8.149-14.52-12.323-21.721l129.686-74.738c3.921 7.54 7.844 14.967 11.786 22.03L62.768 216.136Z" style="fill:#d6c7e7"/>
  <path d="M50.445 194.416c-4.177-7.207-8.394-14.387-12.569-21.579l130.753-75.353c3.841 7.348 7.67 14.825 11.502 22.194L50.445 194.416Z" style="fill:#fff"/>
  <path d="M110.6 29.1a46.615 46.615 0 0 1 14.8 6.6c5.4 3.6 9.6 9 15.5 11.8.2 4.4.3 8.7.2 13.1-4.5-1-9.1-1.8-13.8-2.6-.5-4.4-.5-9.3-3-13.2-1.2-2-4.1-1.8-5.8-.5-4.3 3-7 7.6-10 11.9-4.6.3-9.2 1.2-13.9 1.4 4.8-9.8 10-19.4 16-28.5ZM176 84c9.5-3.2 19.2-5.5 29.2-6.6 3 4.3 6.8 8.5 8.3 13.7.8 4.6.5 9.5-1.2 14-1.2 3.6-3 8-.6 11.6-2.4 2.3-5 4.5-7.7 6.6-2.2-4.4-4.6-8.7-7-13 3.4-3.2 7.2-6.5 8.2-11.2.2-2.4-2-4-4-4.6-5-1.6-10.5-1-15.7-.9-3.2-3.1-6.7-6-9.5-9.6Z" style="fill:#fdfefa;fill-rule:nonzero"/>
  <path d="M126.6 12.6c4.1-1.6 8 1.6 9.5 5.4a81.81 81.81 0 0 1 4.8 29.5c-6-2.9-10-8.2-15.5-11.8-4.3-3.3-9.6-5-14.8-6.6 4.3-6.3 8.8-13.1 16-16.5Zm78.6 64.8c8.1-1 16.8-1.5 24.5 1.9 4.6 1.9 5.8 7.7 3.7 12-4.7 10.2-13.4 18-21.6 25.5v-.1c-2.5-3.6-.7-8 .5-11.7 1.7-4.4 2-9.3 1.2-14-1.5-5.1-5.2-9.3-8.3-13.6Z" style="fill:#fcbf31;fill-rule:nonzero"/>
  <path d="M112.6 87.4c-11-.1-22.1 4.3-29.4 12.7-14.085 15.308-14.517 38.988-1 54.8a37.024 37.024 0 0 0 30 12.9 39.015 39.015 0 0 0 28-13.3c-4-3.6-7.7-7.4-11.8-10.7-5 5.7-12.8 8.8-20.4 7.7-8.4-.9-15.2-7-18.5-14.5l60.5-3.5c2.705-15.11-3.633-30.485-16.2-39.3a36.01 36.01 0 0 0-21.2-6.8Zm-.6 16c9.2 0 17.8 6.4 21.2 14.8-14.8 1-29.5 1.8-44.3 2.6 3-8.8 10.7-16.3 20.3-17.1 1-.2 1.9-.2 2.8-.2v-.1ZM101.7 186.1c.2-4.3 4.3-7.5 8.4-7.5 4.5-.2 8.9 3.7 8.8 8.3v27l-10.9.2v7.4l.2 7.8h4.1V218h6.6v17.3h-17.3V208h10.8v-23.5h-4.2c-.3 6.4-.1 12.8-.2 19.3l-6.4-.1c0-5.9-.2-11.8 0-17.7l.1.1Zm22.1-.7c1.7.1 3.5.2 5.2.5 3.4 1 5.7 4.6 5.6 8v48.3h-6.5v-50.7h-4.3v-6.1Zm-38.5 1.2c4.7-1.8 11 .7 11.7 6.2v18.4h-6.6V192H86v45h4.2l.1-15.3h-4.6l-.1-6.2 11.2.1v6.6c-.3 5 .7 10.4-.6 15.4-2.3 6.8-13 7.1-16 .5-1.3-2-.7-10.7-.8-16v-27.7c0-3.5 2.4-6.8 5.8-7.8h.1Z" style="fill:#fff;fill-rule:nonzero;filter:url(#b)"/>
</svg>
