<svg xmlns="http://www.w3.org/2000/svg" xmlns:xlink="http://www.w3.org/1999/xlink" width="256" height="256" class="esix-logo">
  <defs>
    <linearGradient id="a">
      <stop offset="0" style="stop-color:#000091;stop-opacity:1"/>
      <stop offset=".33" style="stop-color:#000091;stop-opacity:1"/>

      <stop offset=".33" style="stop-color:#FFFFFF;stop-opacity:1"/>
      <stop offset=".66" style="stop-color:#FFFFFF;stop-opacity:1"/>

      <stop offset=".66" style="stop-color:#E1000F;stop-opacity:1"/>
      <stop offset="1" style="stop-color:#E1000F;stop-opacity:1"/>
    </linearGradient>
    <linearGradient xlink:href="#a" id="b" x1="25" x2="200" y1="150" y2="150" gradientUnits="userSpaceOnUse"/>
    <filter id="c" width="2" height="2" x="-.5" y="-.5" style="color-interpolation-filters:sRGB">
      <feFlood flood-color="#000" flood-opacity=".5" result="flood"/>
      <feGaussianBlur in="SourceGraphic" result="blur" stdDeviation="15"/>
      <feOffset in="blur" result="offset"/>
      <feComposite in="flood" in2="offset" operator="in" result="comp1"/>
      <feComposite in="SourceGraphic" in2="comp1" result="fbSourceGraphic"/>
      <feColorMatrix in="fbSourceGraphic" result="fbSourceGraphicAlpha" values="0 0 0 -1 0 0 0 0 -1 0 0 0 0 -1 0 0 0 0 1 0"/>
      <feFlood flood-color="#000" flood-opacity=".75" result="flood"/>
      <feGaussianBlur in="fbSourceGraphic" result="blur" stdDeviation="2"/>
      <feOffset in="blur" result="offset"/>
      <feComposite in="flood" in2="offset" operator="in" result="comp1"/>
      <feComposite in="fbSourceGraphic" in2="comp1" result="comp2"/>
    </filter>
  </defs>
  <path fill="#01549d" d="M65.6 70.4h88.2c14.2 24.2 28 54.1 42.1 78.3-14 24.5-28.4 48.7-42.7 73H65.8C52 196.1 36.5 171.4 22.7 146c7.7-15.3 35.8-61.3 42.9-75.6z" class="esix-logo-bg" style="fill-opacity:1;fill:url(#b);opacity:1"/>
  <g fill="#fdfefa" class="esix-logo-ear-bottom">
    <path d="M110.6 29.1a46.6 46.6 0 0 1 14.8 6.6c5.4 3.6 9.6 9 15.5 11.8.2 4.4.3 8.7.2 13.1-4.5-1-9.1-1.8-13.8-2.6-.5-4.4-.5-9.3-3-13.2-1.2-2-4.1-1.8-5.8-.5-4.3 3-7 7.6-10 11.9-4.6.3-9.2 1.2-13.9 1.4 4.8-9.8 10-19.4 16-28.5zM176 84c9.5-3.2 19.2-5.5 29.2-6.6 3 4.3 6.8 8.5 8.3 13.7.8 4.6.5 9.5-1.2 14-1.2 3.6-3 8-.6 11.6-2.4 2.3-5 4.5-7.7 6.6-2.2-4.4-4.6-8.7-7-13 3.4-3.2 7.2-6.5 8.2-11.2.2-2.4-2-4-4-4.6-5-1.6-10.5-1-15.7-.9-3.2-3.1-6.7-6-9.5-9.6z"/>
  </g>
  <g fill="#fcbf31" class="esix-logo-ear-top">
    <path d="M126.6 12.6c4.1-1.6 8 1.6 9.5 5.4a81.8 81.8 0 0 1 4.8 29.5c-6-2.9-10-8.2-15.5-11.8-4.3-3.3-9.6-5-14.8-6.6 4.3-6.3 8.8-13.1 16-16.5zM205.2 77.4c8.1-1 16.8-1.5 24.5 1.9 4.6 1.9 5.8 7.7 3.7 12-4.7 10.2-13.4 18-21.6 25.5v-.1c-2.5-3.6-.7-8 .5-11.7 1.7-4.4 2-9.3 1.2-14-1.5-5.1-5.2-9.3-8.3-13.6z"/>
  </g>
  <path fill="#fff" d="M112.6 87.4c-11-.1-22.1 4.3-29.4 12.7a41.3 41.3 0 0 0-1 54.8 37 37 0 0 0 30 12.9 39 39 0 0 0 28-13.3c-4-3.6-7.7-7.4-11.8-10.7-5 5.7-12.8 8.8-20.4 7.7-8.4-.9-15.2-7-18.5-14.5l60.5-3.5a39.5 39.5 0 0 0-16.2-39.3 36 36 0 0 0-21.2-6.8zm-.6 16c9.2 0 17.8 6.4 21.2 14.8-14.8 1-29.5 1.8-44.3 2.6 3-8.8 10.7-16.3 20.3-17.1 1-.2 1.9-.2 2.8-.2z" class="esix-logo-letter" style="filter:url(#c)"/>
  <g fill="#fff" class="esix-logo-numbers" style="filter:url(#c)">
    <path d="M101.7 186.1c.2-4.3 4.3-7.5 8.4-7.5 4.5-.2 8.9 3.7 8.8 8.3v27l-10.9.2v7.4l.2 7.8h4.1V218h6.6v17.3h-17.3V208h10.8v-23.5h-4.2c-.3 6.4-.1 12.8-.2 19.3l-6.4-.1c0-5.9-.2-11.8 0-17.7zM123.8 185.4c1.7.1 3.5.2 5.2.5 3.4 1 5.7 4.6 5.6 8v48.3h-6.5v-50.7h-4.3v-6zM85.3 186.6c4.7-1.8 11 .7 11.7 6.2v18.4h-6.6V192H86v45h4.2l.1-15.3h-4.6l-.1-6.2 11.2.1v6.6c-.3 5 .7 10.4-.6 15.4-2.3 6.8-13 7.1-16 .5-1.3-2-.7-10.7-.8-16v-27.7c0-3.5 2.4-6.8 5.8-7.8z"/>
  </g>
</svg>
