<svg xmlns="http://www.w3.org/2000/svg" xml:space="preserve" style="fill-rule:evenodd;clip-rule:evenodd;stroke-linejoin:round;stroke-miterlimit:2" viewBox="0 0 256 256">
  <defs>
    <filter id="a" width="2" height="2" x="-.5" y="-.5" style="color-interpolation-filters:sRGB">
      <feFlood flood-color="#000" flood-opacity=".498" result="flood"/>
      <feGaussianBlur in="SourceGraphic" result="blur" stdDeviation="15"/>
      <feOffset in="blur" result="offset"/>
      <feComposite in="flood" in2="offset" operator="in" result="comp1"/>
      <feComposite in="SourceGraphic" in2="comp1" result="fbSourceGraphic"/>
      <feColorMatrix in="fbSourceGraphic" result="fbSourceGraphicAlpha" values="0 0 0 -1 0 0 0 0 -1 0 0 0 0 -1 0 0 0 0 1 0"/>
      <feFlood flood-color="#000" flood-opacity=".498" result="flood"/>
      <feGaussianBlur in="fbSourceGraphic" result="blur" stdDeviation="2"/>
      <feOffset in="blur" result="offset"/>
      <feComposite in="flood" in2="offset" operator="in" result="comp1"/>
      <feComposite in="fbSourceGraphic" in2="comp1" result="comp2"/>
    </filter>
  </defs>
  <path d="M133.738 209.3H39.843c-4.915-54.712-10.03-108.787-15.213-162.6h125.081c-5.322 54.194-10.654 108.358-15.973 162.6Z" style="fill:#6d2380" transform="matrix(.93083 0 0 .15511 28.713 189.235)"/>
  <path d="M8.859 46.7h156.752a153516.107 153516.107 0 0 1-15.9 162.6H24.63C19.396 154.962 14.093 100.891 8.859 46.7Z" style="fill:#2c58a4" transform="matrix(.93083 0 0 .15511 28.713 164.013)"/>
  <path d="M0 116.455V46.7h177.958a9029 9029 0 0 0 1.653 17.178 76024.016 76024.016 0 0 1-14 145.422H8.859C5.875 178.414 2.914 147.49 0 116.455Z" style="fill:#78b82a" transform="matrix(.93083 0 0 .15511 28.713 138.792)"/>
  <path d="M177.958 209.3H0v-71.682C2.562 110.345 5.537 79.343 8.694 46.7h154.61c4.871 56.113 9.747 111.15 14.654 162.6Z" style="fill:#efe524" transform="matrix(.93083 0 0 .15511 28.713 113.57)"/>
  <path d="M163.304 209.3H8.694c5.112-52.851 10.702-110.004 15.791-162.6h124.764c4.695 53.708 9.373 108.652 14.055 162.6Z" style="fill:#f28917" transform="matrix(.93083 0 0 .15511 28.713 88.349)"/>
  <path d="M149.249 209.3H24.485c6.606-68.274 12.368-128.87 15.143-162.412h94.754c4.993 51.06 9.94 106.056 14.867 162.412Z" style="fill:#e22016" transform="matrix(.93083 0 0 .15511 28.713 63.127)"/>
  <path d="M91.21 221.703H66.28l-1.152-1.249c-11.652-21.503-24.462-42.381-36.413-63.6v-21.935c10.805-19.17 29.5-50.214 36.119-63.01l1.399-1.51h25.03l70.097 75.626-70.15 75.678Z"/>
  <path d="M129.256 125.631h-2.037c-2.248-3.867-4.734-7.616-7.05-11.427v-3.865c2.14-3.519 5.909-9.309 7.012-11.369h2.085l13.325 13.326-13.335 13.335Z" style="fill:#945516" transform="matrix(5.26056 0 0 5.67512 -603.444 -491.268)"/>
  <path d="M122.933 114.204v-3.865c2.004-3.295 5.436-8.581 6.77-10.931l12.888 12.888-12.876 12.876c-2.176-3.705-4.557-7.308-6.782-10.968Z" style="fill:#7bcce5" transform="matrix(5.26056 0 0 5.67512 -617.985 -491.268)"/>
  <path d="M125.675 114.204v-3.865c1.604-2.637 4.122-6.549 5.748-9.211l11.168 11.168-11.16 11.159c-1.885-3.106-3.876-6.158-5.756-9.251Z" style="fill:#f4aec8" transform="matrix(5.26056 0 0 5.67512 -632.41 -491.268)"/>
  <path d="M128.472 114.204v-3.865c1.282-2.11 3.15-5.035 4.679-7.484l9.44 9.441-9.427 9.427c-1.56-2.514-3.163-5.003-4.692-7.519Z" style="fill:#fff" transform="matrix(5.26056 0 0 5.67512 -647.12 -491.268)"/>
  <path d="M134.864 120.023c-1.616-2.572-3.249-5.131-4.773-7.731.824-1.519 2.878-4.753 4.757-7.739l7.743 7.743-7.727 7.727Z" style="fill:#fdd817" transform="matrix(5.26056 0 0 5.67512 -661.649 -491.268)"/>
  <circle cx="42.184" cy="128.005" r="19.027" style="fill:#66338b" transform="translate(11.506 26.873) scale(.93083)"/>
  <circle cx="42.184" cy="128.005" r="19.027" style="fill:#fdd817" transform="translate(19.727 51.82) scale(.73594)"/>
  <path d="M110.6 29.1a46.615 46.615 0 0 1 14.8 6.6c5.4 3.6 9.6 9 15.5 11.8.2 4.4.3 8.7.2 13.1-4.5-1-9.1-1.8-13.8-2.6-.5-4.4-.5-9.3-3-13.2-1.2-2-4.1-1.8-5.8-.5-4.3 3-7 7.6-10 11.9-4.6.3-9.2 1.2-13.9 1.4 4.8-9.8 10-19.4 16-28.5ZM176 84c9.5-3.2 19.2-5.5 29.2-6.6 3 4.3 6.8 8.5 8.3 13.7.8 4.6.5 9.5-1.2 14-1.2 3.6-3 8-.6 11.6-2.4 2.3-5 4.5-7.7 6.6-2.2-4.4-4.6-8.7-7-13 3.4-3.2 7.2-6.5 8.2-11.2.2-2.4-2-4-4-4.6-5-1.6-10.5-1-15.7-.9-3.2-3.1-6.7-6-9.5-9.6Z" style="fill:#fdfefa;fill-rule:nonzero;filter:url(#a)"/>
  <path d="M126.6 12.6c4.1-1.6 8 1.6 9.5 5.4a81.81 81.81 0 0 1 4.8 29.5c-6-2.9-10-8.2-15.5-11.8-4.3-3.3-9.6-5-14.8-6.6 4.3-6.3 8.8-13.1 16-16.5Zm78.6 64.8c8.1-1 16.8-1.5 24.5 1.9 4.6 1.9 5.8 7.7 3.7 12-4.7 10.2-13.4 18-21.6 25.5v-.1c-2.5-3.6-.7-8 .5-11.7 1.7-4.4 2-9.3 1.2-14-1.5-5.1-5.2-9.3-8.3-13.6Z" style="fill:#fcbf31;fill-rule:nonzero;filter:url(#a)"/>
  <path d="M112.6 87.4c-11-.1-22.1 4.3-29.4 12.7-14.085 15.308-14.517 38.988-1 54.8a37.024 37.024 0 0 0 30 12.9 39.015 39.015 0 0 0 28-13.3c-4-3.6-7.7-7.4-11.8-10.7-5 5.7-12.8 8.8-20.4 7.7-8.4-.9-15.2-7-18.5-14.5l60.5-3.5c2.705-15.11-3.633-30.485-16.2-39.3a36.01 36.01 0 0 0-21.2-6.8Zm-.6 16c9.2 0 17.8 6.4 21.2 14.8-14.8 1-29.5 1.8-44.3 2.6 3-8.8 10.7-16.3 20.3-17.1 1-.2 1.9-.2 2.8-.2v-.1Zm-10.3 82.7c.2-4.3 4.3-7.5 8.4-7.5 4.5-.2 8.9 3.7 8.8 8.3v27l-10.9.2v7.4l.2 7.8h4.1V218h6.6v17.3h-17.3V208h10.8v-23.5h-4.2c-.3 6.4-.1 12.8-.2 19.3l-6.4-.1c0-5.9-.2-11.8 0-17.7l.1.1Zm22.1-.7c1.7.1 3.5.2 5.2.5 3.4 1 5.7 4.6 5.6 8v48.3h-6.5v-50.7h-4.3v-6.1Zm-38.5 1.2c4.7-1.8 11 .7 11.7 6.2v18.4h-6.6V192H86v45h4.2l.1-15.3h-4.6l-.1-6.2 11.2.1v6.6c-.3 5 .7 10.4-.6 15.4-2.3 6.8-13 7.1-16 .5-1.3-2-.7-10.7-.8-16v-27.7c0-3.5 2.4-6.8 5.8-7.8h.1Z" style="fill:#fff;fill-rule:nonzero;filter:url(#a)"/>
</svg>
