<svg xmlns="http://www.w3.org/2000/svg" xml:space="preserve" style="fill-rule:evenodd;clip-rule:evenodd;stroke-linecap:round;stroke-linejoin:round;stroke-miterlimit:1.5" viewBox="0 0 256 256">
  <defs>
    <filter id="a" width="2" height="2" x="-.5" y="-.5" style="color-interpolation-filters:sRGB">
      <feFlood flood-color="#000" flood-opacity=".498" result="flood"/>
      <feGaussianBlur in="SourceGraphic" result="blur" stdDeviation="15"/>
      <feOffset in="blur" result="offset"/>
      <feComposite in="flood" in2="offset" operator="in" result="comp1"/>
      <feComposite in="SourceGraphic" in2="comp1" result="fbSourceGraphic"/>
      <feColorMatrix in="fbSourceGraphic" result="fbSourceGraphicAlpha" values="0 0 0 -1 0 0 0 0 -1 0 0 0 0 -1 0 0 0 0 1 0"/>
      <feFlood flood-color="#000" flood-opacity=".498" result="flood"/>
      <feGaussianBlur in="fbSourceGraphic" result="blur" stdDeviation="2"/>
      <feOffset in="blur" result="offset"/>
      <feComposite in="flood" in2="offset" operator="in" result="comp1"/>
      <feComposite in="fbSourceGraphic" in2="comp1" result="comp2"/>
    </filter>
  </defs>
  <path d="M65.6 70.4h88.2c14.2 24.2 28 54.1 42.1 78.3-14 24.5-28.4 48.7-42.7 73H65.8C52 196.1 36.5 171.4 22.7 146c7.7-15.3 35.8-61.3 42.9-75.6Z" style="fill:#ffd800"/>
  <path d="m111.813 135.748 24.583 7.415 35.848-26.698-33.527 41.936-23.078-7.558-16.693 17.637-49.452-20.906 44.236 6.403 18.084-18.228Z" style="fill:#9d70c2;stroke:#000;stroke-opacity:0;stroke-width:1px"/>
  <path d="M140.261 24.689c.646 15.984-2.252 33.796-6.239 39.337-4.5-1-24.355-2.455-29.055-2.255-.837-9.889 2.815-27.279 9.952-40.186l.19 7.3 10.043-13.679 1.261 14.098 8.644-12.007 2.188 10.197 3.016-2.806ZM231.81 96.429c-11.332 11.878-24.951 17.779-33.323 19.669-2.2-4.4-15.167-23.929-17.967-27.529 5.538-6.255 23.159-14.296 41.591-19.41l-2.95 6.998 10.508-1.056-8.419 12.233 13.906-3.187-9.523 14.128 6.176-1.847Z" style="fill:#ffd800"/>
  <path d="m140.261 24.689-3.016 2.806-2.188-10.197-8.644 12.007-1.261-14.098-10.043 13.679-.19-7.3c3.425-6.193 6.494-11.439 8.576-14.449 7.883-11.397 15.012-8.405 15.999 3.751.298 3.663.552 8.513.766 13.801ZM231.81 96.429l-6.176 1.847 9.523-14.128-13.906 3.187 8.419-12.233-10.508 1.056 2.95-6.998c9.885-2.743 18.889-4.758 24.178-4.798 8.31-.063 9.558 4.634 3.7 12-3.186 4.005-10.362 11.875-18.178 20.068Z" style="fill:#fff;stroke:#000;stroke-opacity:0;stroke-width:1px;filter:url(#a)"/>
  <path d="M112.6 87.4c-11-.1-22.1 4.3-29.4 12.7-14.085 15.308-14.517 38.988-1 54.8a37.024 37.024 0 0 0 30 12.9 39.015 39.015 0 0 0 28-13.3c-4-3.6-7.7-7.4-11.8-10.7-5 5.7-12.8 8.8-20.4 7.7-8.4-.9-15.2-7-18.5-14.5l60.5-3.5c2.705-15.11-3.633-30.485-16.2-39.3a36.01 36.01 0 0 0-21.2-6.8Zm-.6 16c9.2 0 17.8 6.4 21.2 14.8-14.8 1-29.5 1.8-44.3 2.6 3-8.8 10.7-16.3 20.3-17.1 1-.2 1.9-.2 2.8-.2v-.1ZM101.7 186.1c.2-4.3 4.3-7.5 8.4-7.5 4.5-.2 8.9 3.7 8.8 8.3v27l-10.9.2v7.4l.2 7.8h4.1V218h6.6v17.3h-17.3V208h10.8v-23.5h-4.2c-.3 6.4-.1 12.8-.2 19.3l-6.4-.1c0-5.9-.2-11.8 0-17.7l.1.1Zm22.1-.7c1.7.1 3.5.2 5.2.5 3.4 1 5.7 4.6 5.6 8v48.3h-6.5v-50.7h-4.3v-6.1Zm-38.5 1.2c4.7-1.8 11 .7 11.7 6.2v18.4h-6.6V192H86v45h4.2l.1-15.3h-4.6l-.1-6.2 11.2.1v6.6c-.3 5 .7 10.4-.6 15.4-2.3 6.8-13 7.1-16 .5-1.3-2-.7-10.7-.8-16v-27.7c0-3.5 2.4-6.8 5.8-7.8h.1Z" style="fill:#fff;fill-rule:nonzero;filter:url(#a)"/>
</svg>
